G04 #@! TF.GenerationSoftware,KiCad,Pcbnew,9.0.2+dfsg-1*
G04 #@! TF.CreationDate,2026-08-18T10:18:07+02:00*
G04 #@! TF.ProjectId,kicad,6b696361-642e-46b6-9963-61645f706362,rev?*
G04 #@! TF.SameCoordinates,Original*
G04 #@! TF.FileFunction,Soldermask,Top*
G04 #@! TF.FilePolarity,Negative*
%FSLAX46Y46*%
G04 Gerber Fmt 4.6, Leading zero omitted, Abs format (unit mm)*
G04 Created by KiCad (PCBNEW 9.0.2+dfsg-1) date 2026-08-18 10:18:07*
%MOMM*%
%LPD*%
G01*
G04 APERTURE LIST*
G04 Aperture macros list*
%AMRoundRect*
0 Rectangle with rounded corners*
0 $1 Rounding radius*
0 $2 $3 $4 $5 $6 $7 $8 $9 X,Y pos of 4 corners*
0 Add a 4 corners polygon primitive as box body*
4,1,4,$2,$3,$4,$5,$6,$7,$8,$9,$2,$3,0*
0 Add four circle primitives for the rounded corners*
1,1,$1+$1,$2,$3*
1,1,$1+$1,$4,$5*
1,1,$1+$1,$6,$7*
1,1,$1+$1,$8,$9*
0 Add four rect primitives between the rounded corners*
20,1,$1+$1,$2,$3,$4,$5,0*
20,1,$1+$1,$4,$5,$6,$7,0*
20,1,$1+$1,$6,$7,$8,$9,0*
20,1,$1+$1,$8,$9,$2,$3,0*%
G04 Aperture macros list end*
%ADD10C,1.400000*%
%ADD11R,1.500000X1.500000*%
%ADD12C,1.500000*%
%ADD13C,4.000000*%
%ADD14R,1.700000X1.700000*%
%ADD15C,1.700000*%
%ADD16RoundRect,0.250000X-0.550000X-0.550000X0.550000X-0.550000X0.550000X0.550000X-0.550000X0.550000X0*%
%ADD17C,1.600000*%
%ADD18C,6.000000*%
%ADD19C,2.400000*%
%ADD20RoundRect,0.175000X0.425000X-0.175000X0.425000X0.175000X-0.425000X0.175000X-0.425000X-0.175000X0*%
%ADD21RoundRect,0.190000X-0.410000X0.190000X-0.410000X-0.190000X0.410000X-0.190000X0.410000X0.190000X0*%
%ADD22RoundRect,0.200000X-0.400000X0.200000X-0.400000X-0.200000X0.400000X-0.200000X0.400000X0.200000X0*%
%ADD23RoundRect,0.175000X-0.425000X0.175000X-0.425000X-0.175000X0.425000X-0.175000X0.425000X0.175000X0*%
%ADD24RoundRect,0.190000X0.410000X-0.190000X0.410000X0.190000X-0.410000X0.190000X-0.410000X-0.190000X0*%
%ADD25RoundRect,0.200000X0.400000X-0.200000X0.400000X0.200000X-0.400000X0.200000X-0.400000X-0.200000X0*%
%ADD26O,1.700000X1.100000*%
%ADD27R,1.600000X1.600000*%
%ADD28R,1.800000X1.600000*%
%ADD29RoundRect,0.250000X-0.550000X0.550000X-0.550000X-0.550000X0.550000X-0.550000X0.550000X0.550000X0*%
%ADD30C,2.000000*%
%ADD31RoundRect,0.250000X0.550000X-0.550000X0.550000X0.550000X-0.550000X0.550000X-0.550000X-0.550000X0*%
%ADD32RoundRect,0.249999X0.850001X-0.850001X0.850001X0.850001X-0.850001X0.850001X-0.850001X-0.850001X0*%
%ADD33C,2.200000*%
%ADD34C,3.200000*%
%ADD35R,1.710000X1.800000*%
%ADD36O,1.710000X1.800000*%
G04 APERTURE END LIST*
D10*
X54500000Y-47620000D03*
X54500000Y-42540000D03*
X221350000Y-48500000D03*
X221350000Y-53580000D03*
X43660000Y-59100000D03*
X48740000Y-59100000D03*
X252350000Y-54450000D03*
X252350000Y-59530000D03*
X64500000Y-39620000D03*
X64500000Y-34540000D03*
D11*
X43600000Y-55000000D03*
D12*
X46140000Y-55000000D03*
X48680000Y-55000000D03*
D10*
X169650000Y-54470000D03*
X169650000Y-59550000D03*
X129300000Y-47740000D03*
X129300000Y-42660000D03*
X169650000Y-46930000D03*
X169650000Y-52010000D03*
D13*
X141400000Y-27500000D03*
D10*
X193950000Y-53730000D03*
X193950000Y-58810000D03*
X121800000Y-47740000D03*
X121800000Y-42660000D03*
X245550000Y-39720000D03*
X245550000Y-44800000D03*
X221350000Y-63250000D03*
X221350000Y-68330000D03*
X166250000Y-39720000D03*
X166250000Y-44800000D03*
X109300000Y-47740000D03*
X109300000Y-42660000D03*
X126800000Y-39740000D03*
X126800000Y-34660000D03*
X126800000Y-47740000D03*
X126800000Y-42660000D03*
D14*
X99300000Y-38200000D03*
D15*
X96760000Y-38200000D03*
D10*
X119300000Y-47740000D03*
X119300000Y-42660000D03*
X217950000Y-56010000D03*
X217950000Y-61090000D03*
X91340000Y-47800000D03*
X86260000Y-47800000D03*
X124300000Y-47740000D03*
X124300000Y-42660000D03*
D11*
X86260000Y-58760000D03*
D12*
X88800000Y-58760000D03*
X91340000Y-58760000D03*
D10*
X234300000Y-34250000D03*
X229220000Y-34250000D03*
X166250000Y-54470000D03*
X166250000Y-59550000D03*
D16*
X180000000Y-23370000D03*
D17*
X180000000Y-25910000D03*
X180000000Y-28450000D03*
X180000000Y-30990000D03*
X187620000Y-30990000D03*
X187620000Y-28450000D03*
X187620000Y-25910000D03*
X187620000Y-23370000D03*
D10*
X64500000Y-47620000D03*
X64500000Y-42540000D03*
X206400000Y-84460000D03*
X206400000Y-89540000D03*
D14*
X231200000Y-84900000D03*
D15*
X231200000Y-87440000D03*
D14*
X166130000Y-79770000D03*
D15*
X168670000Y-79770000D03*
X171210000Y-79770000D03*
D14*
X220700000Y-83500000D03*
D15*
X220700000Y-86040000D03*
X220700000Y-88580000D03*
D17*
X46200000Y-26700000D03*
X46200000Y-24200000D03*
D13*
X259400000Y-27500000D03*
D10*
X67000000Y-47620000D03*
X67000000Y-42540000D03*
X59500000Y-39620000D03*
X59500000Y-34540000D03*
D11*
X114240000Y-61940000D03*
D12*
X116780000Y-61940000D03*
X119320000Y-61940000D03*
D18*
X159100000Y-69300000D03*
D10*
X193950000Y-61270000D03*
X193950000Y-66350000D03*
D14*
X226900000Y-84900000D03*
D15*
X226900000Y-87440000D03*
D10*
X245550000Y-54450000D03*
X245550000Y-59530000D03*
X47000000Y-39620000D03*
X47000000Y-34540000D03*
X137550000Y-52990000D03*
X132470000Y-52990000D03*
D14*
X54800000Y-74500000D03*
D15*
X57340000Y-74500000D03*
X59880000Y-74500000D03*
D17*
X182630000Y-45150000D03*
X180130000Y-45150000D03*
D18*
X137900000Y-69300000D03*
D10*
X166250000Y-46930000D03*
X166250000Y-52010000D03*
X52000000Y-39620000D03*
X52000000Y-34540000D03*
D14*
X64500000Y-74500000D03*
D15*
X67040000Y-74500000D03*
X69580000Y-74500000D03*
X72120000Y-74500000D03*
X74660000Y-74500000D03*
X77200000Y-74500000D03*
X79740000Y-74500000D03*
X82280000Y-74500000D03*
X84820000Y-74500000D03*
X87360000Y-74500000D03*
X89900000Y-74500000D03*
X92440000Y-74500000D03*
X94980000Y-74500000D03*
D10*
X217950000Y-63250000D03*
X217950000Y-68330000D03*
X170950000Y-33850000D03*
X165870000Y-33850000D03*
D11*
X133500000Y-55800000D03*
D12*
X133500000Y-58340000D03*
X133500000Y-60880000D03*
D10*
X59500000Y-47620000D03*
X59500000Y-42540000D03*
D14*
X39800000Y-60600000D03*
D15*
X37260000Y-60600000D03*
D10*
X54500000Y-39580000D03*
X54500000Y-34500000D03*
D14*
X100900000Y-74500000D03*
D10*
X217950000Y-48500000D03*
X217950000Y-53580000D03*
D13*
X155500000Y-27500000D03*
D10*
X119140000Y-65800000D03*
X114060000Y-65800000D03*
D17*
X112500000Y-27600000D03*
X112500000Y-25100000D03*
D19*
X128900000Y-55300000D03*
X108580000Y-55300000D03*
D10*
X44500000Y-39620000D03*
X44500000Y-34540000D03*
X200750000Y-61270000D03*
X200750000Y-66350000D03*
X57000000Y-47620000D03*
X57000000Y-42540000D03*
X129300000Y-39740000D03*
X129300000Y-34660000D03*
D17*
X169500000Y-20500000D03*
X167000000Y-20500000D03*
D18*
X255900000Y-69300000D03*
D10*
X214550000Y-56010000D03*
X214550000Y-61090000D03*
D13*
X37500000Y-27500000D03*
D10*
X162850000Y-46930000D03*
X162850000Y-52010000D03*
D17*
X71800000Y-38250000D03*
X74300000Y-38250000D03*
D10*
X78100000Y-42140000D03*
X78100000Y-37060000D03*
D13*
X207500000Y-40200000D03*
D19*
X176400000Y-85000000D03*
X198900000Y-85000000D03*
D10*
X214550000Y-48500000D03*
X214550000Y-53580000D03*
D17*
X248400000Y-20600000D03*
X245900000Y-20600000D03*
D10*
X119100000Y-68700000D03*
X114020000Y-68700000D03*
D17*
X71800000Y-41850000D03*
X74300000Y-41850000D03*
D10*
X169650000Y-39720000D03*
X169650000Y-44800000D03*
X47000000Y-47620000D03*
X47000000Y-42540000D03*
D14*
X144200000Y-58500000D03*
D15*
X141660000Y-58500000D03*
D10*
X116800000Y-39740000D03*
X116800000Y-34660000D03*
D17*
X81100000Y-54150000D03*
X81100000Y-56650000D03*
D10*
X111800000Y-47740000D03*
X111800000Y-42660000D03*
D14*
X155900000Y-88300000D03*
D15*
X158440000Y-88300000D03*
X160980000Y-88300000D03*
X163520000Y-88300000D03*
X166060000Y-88300000D03*
X168600000Y-88300000D03*
X171140000Y-88300000D03*
D14*
X210600000Y-83460000D03*
D15*
X210600000Y-86000000D03*
X210600000Y-88540000D03*
D10*
X62000000Y-39620000D03*
X62000000Y-34540000D03*
X197350000Y-53730000D03*
X197350000Y-58810000D03*
X49500000Y-39620000D03*
X49500000Y-34540000D03*
X197350000Y-46520000D03*
X197350000Y-51600000D03*
X121800000Y-39740000D03*
X121800000Y-34660000D03*
X44500000Y-47620000D03*
X44500000Y-42540000D03*
X186500000Y-33970000D03*
X181420000Y-33970000D03*
D20*
X258420000Y-50500000D03*
D21*
X258420000Y-48480000D03*
D22*
X258420000Y-47250000D03*
D23*
X258420000Y-49500000D03*
D24*
X258420000Y-51520000D03*
D25*
X258420000Y-52750000D03*
D26*
X258500000Y-54320000D03*
X262300000Y-54320000D03*
X258500000Y-45680000D03*
X262300000Y-45680000D03*
D10*
X214550000Y-63250000D03*
X214550000Y-68330000D03*
D16*
X164450000Y-23270000D03*
D17*
X164450000Y-25810000D03*
X164450000Y-28350000D03*
X164450000Y-30890000D03*
X172070000Y-30890000D03*
X172070000Y-28350000D03*
X172070000Y-25810000D03*
X172070000Y-23270000D03*
D16*
X177530000Y-47900000D03*
D17*
X177530000Y-50440000D03*
X177530000Y-52980000D03*
X177530000Y-55520000D03*
X177530000Y-58060000D03*
X177530000Y-60600000D03*
X177530000Y-63140000D03*
X177530000Y-65680000D03*
X185150000Y-65680000D03*
X185150000Y-63140000D03*
X185150000Y-60600000D03*
X185150000Y-58060000D03*
X185150000Y-55520000D03*
X185150000Y-52980000D03*
X185150000Y-50440000D03*
X185150000Y-47900000D03*
D13*
X219860000Y-30780000D03*
X194860000Y-30780000D03*
D27*
X212900000Y-32200000D03*
D17*
X210130000Y-32200000D03*
X207360000Y-32200000D03*
X204590000Y-32200000D03*
X201820000Y-32200000D03*
X211515000Y-29360000D03*
X208745000Y-29360000D03*
X205975000Y-29360000D03*
X203205000Y-29360000D03*
X248570000Y-89000000D03*
X253650000Y-89000000D03*
X258730000Y-89000000D03*
X248570000Y-81380000D03*
X253650000Y-81380000D03*
X258730000Y-81380000D03*
D28*
X240950000Y-89000000D03*
D17*
X240950000Y-81380000D03*
D18*
X41100000Y-69300000D03*
D14*
X215700000Y-83500000D03*
D15*
X215700000Y-86040000D03*
X215700000Y-88580000D03*
D10*
X91300000Y-52900000D03*
X86220000Y-52900000D03*
X138150000Y-60790000D03*
X138150000Y-55710000D03*
X57000000Y-39620000D03*
X57000000Y-34540000D03*
D16*
X243400000Y-23350000D03*
D17*
X243400000Y-25890000D03*
X243400000Y-28430000D03*
X243400000Y-30970000D03*
X251020000Y-30970000D03*
X251020000Y-28430000D03*
X251020000Y-25890000D03*
X251020000Y-23350000D03*
D10*
X131800000Y-39750000D03*
X131800000Y-34670000D03*
D16*
X231230000Y-47900000D03*
D17*
X231230000Y-50440000D03*
X231230000Y-52980000D03*
X231230000Y-55520000D03*
X231230000Y-58060000D03*
X231230000Y-60600000D03*
X231230000Y-63140000D03*
X231230000Y-65680000D03*
X238850000Y-65680000D03*
X238850000Y-63140000D03*
X238850000Y-60600000D03*
X238850000Y-58060000D03*
X238850000Y-55520000D03*
X238850000Y-52980000D03*
X238850000Y-50440000D03*
X238850000Y-47900000D03*
D10*
X109300000Y-39740000D03*
X109300000Y-34660000D03*
D16*
X227800000Y-23350000D03*
D17*
X227800000Y-25890000D03*
X227800000Y-28430000D03*
X227800000Y-30970000D03*
X235420000Y-30970000D03*
X235420000Y-28430000D03*
X235420000Y-25890000D03*
X235420000Y-23350000D03*
D10*
X162850000Y-39720000D03*
X162850000Y-44800000D03*
D13*
X89500000Y-40200000D03*
D10*
X252350000Y-46910000D03*
X252350000Y-51990000D03*
X197350000Y-61270000D03*
X197350000Y-66350000D03*
D29*
X78300000Y-51650000D03*
D17*
X75760000Y-51650000D03*
X73220000Y-51650000D03*
X70680000Y-51650000D03*
X68140000Y-51650000D03*
X65600000Y-51650000D03*
X63060000Y-51650000D03*
X60520000Y-51650000D03*
X60520000Y-59270000D03*
X63060000Y-59270000D03*
X65600000Y-59270000D03*
X68140000Y-59270000D03*
X70680000Y-59270000D03*
X73220000Y-59270000D03*
X75760000Y-59270000D03*
X78300000Y-59270000D03*
D10*
X116800000Y-47740000D03*
X116800000Y-42660000D03*
X111800000Y-39740000D03*
X111800000Y-34660000D03*
X52000000Y-47620000D03*
X52000000Y-42540000D03*
D14*
X262500000Y-83800000D03*
D15*
X262500000Y-86340000D03*
D10*
X200750000Y-46520000D03*
X200750000Y-51600000D03*
X114300000Y-47740000D03*
X114300000Y-42660000D03*
X49500000Y-47620000D03*
X49500000Y-42540000D03*
D30*
X118900000Y-74800000D03*
X113900000Y-74800000D03*
D10*
X248950000Y-39700000D03*
X248950000Y-44780000D03*
X248950000Y-54450000D03*
X248950000Y-59530000D03*
X193950000Y-46520000D03*
X193950000Y-51600000D03*
D17*
X232900000Y-20600000D03*
X230400000Y-20600000D03*
D31*
X115200000Y-29600000D03*
D17*
X117740000Y-29600000D03*
X120280000Y-29600000D03*
X122820000Y-29600000D03*
X125360000Y-29600000D03*
X127900000Y-29600000D03*
X130440000Y-29600000D03*
X132980000Y-29600000D03*
X132980000Y-21980000D03*
X130440000Y-21980000D03*
X127900000Y-21980000D03*
X125360000Y-21980000D03*
X122820000Y-21980000D03*
X120280000Y-21980000D03*
X117740000Y-21980000D03*
X115200000Y-21980000D03*
D10*
X244900000Y-34700000D03*
X249980000Y-34700000D03*
D12*
X74000000Y-46600000D03*
X78880000Y-46600000D03*
D10*
X131800000Y-47740000D03*
X131800000Y-42660000D03*
X114300000Y-39740000D03*
X114300000Y-34660000D03*
X221350000Y-56010000D03*
X221350000Y-61090000D03*
X200750000Y-53730000D03*
X200750000Y-58810000D03*
X252350000Y-39700000D03*
X252350000Y-44780000D03*
X124300000Y-39740000D03*
X124300000Y-34660000D03*
X162850000Y-54470000D03*
X162850000Y-59550000D03*
D32*
X236600000Y-89000000D03*
D33*
X236600000Y-81380000D03*
D17*
X234480000Y-45150000D03*
X236980000Y-45150000D03*
D14*
X155900000Y-83800000D03*
D15*
X158440000Y-83800000D03*
X160980000Y-83800000D03*
X163520000Y-83800000D03*
X166060000Y-83800000D03*
X168600000Y-83800000D03*
X171140000Y-83800000D03*
D34*
X125920000Y-72200000D03*
D35*
X128200000Y-61100000D03*
D36*
X125920000Y-61100000D03*
X123640000Y-61100000D03*
D10*
X119300000Y-39700000D03*
X119300000Y-34620000D03*
D14*
X104840000Y-74415000D03*
D15*
X107380000Y-74415000D03*
X109920000Y-74415000D03*
D10*
X119000000Y-71540000D03*
X113920000Y-71540000D03*
X81400000Y-42100000D03*
X81400000Y-37020000D03*
X43660000Y-61900000D03*
X48740000Y-61900000D03*
X248950000Y-46910000D03*
X248950000Y-51990000D03*
X245550000Y-46910000D03*
X245550000Y-51990000D03*
X62000000Y-47620000D03*
X62000000Y-42540000D03*
X67000000Y-39630000D03*
X67000000Y-34550000D03*
D23*
X156580000Y-49500000D03*
D24*
X156580000Y-51520000D03*
D25*
X156580000Y-52750000D03*
D20*
X156580000Y-50500000D03*
D21*
X156580000Y-48480000D03*
D22*
X156580000Y-47250000D03*
D26*
X156500000Y-45680000D03*
X152700000Y-45680000D03*
X156500000Y-54320000D03*
X152700000Y-54320000D03*
D17*
X185100000Y-20600000D03*
X182600000Y-20600000D03*
D31*
X49000000Y-29380000D03*
D17*
X51540000Y-29380000D03*
X54080000Y-29380000D03*
X56620000Y-29380000D03*
X59160000Y-29380000D03*
X61700000Y-29380000D03*
X64240000Y-29380000D03*
X66780000Y-29380000D03*
X66780000Y-21760000D03*
X64240000Y-21760000D03*
X61700000Y-21760000D03*
X59160000Y-21760000D03*
X56620000Y-21760000D03*
X54080000Y-21760000D03*
X51540000Y-21760000D03*
X49000000Y-21760000D03*
X203300000Y-84750000D03*
X203300000Y-87250000D03*
M02*
