M48
; DRILL file {KiCad 9.0.2+dfsg-1} date 2026-08-30T14:46:01+0200
; FORMAT={-:-/ absolute / inch / decimal}
; #@! TF.CreationDate,2026-08-30T14:46:01+02:00
; #@! TF.GenerationSoftware,Kicad,Pcbnew,9.0.2+dfsg-1
; #@! TF.FileFunction,Plated,1,4,PTH
FMAT,2
INCH
; #@! TA.AperFunction,Plated,PTH,ViaDrill
T1C0.0118
; #@! TA.AperFunction,Plated,PTH,ComponentDrill
T2C0.0236
; #@! TA.AperFunction,Plated,PTH,ComponentDrill
T3C0.0276
; #@! TA.AperFunction,Plated,PTH,ComponentDrill
T4C0.0315
; #@! TA.AperFunction,Plated,PTH,ComponentDrill
T5C0.0394
; #@! TA.AperFunction,Plated,PTH,ComponentDrill
T6C0.0433
; #@! TA.AperFunction,Plated,PTH,ComponentDrill
T7C0.0472
; #@! TA.AperFunction,Plated,PTH,ComponentDrill
T8C0.1260
%
G90
G05
T1
X2.6535Y-2.6457
X2.7677Y-2.7835
X3.252Y-2.7457
X3.2795Y-2.2835
X3.5354Y-2.5079
X3.6929Y-2.6929
X3.748Y-2.2953
X3.752Y-2.4291
X3.815Y-2.3661
X3.8346Y-2.2087
X3.8898Y-2.1063
X3.9134Y-2.4449
X4.0157Y-2.5945
X4.0236Y-2.748
X4.0472Y-2.311
X4.2717Y-2.748
X4.2756Y-2.5945
X4.3504Y-2.3622
X4.4173Y-2.5079
X6.0079Y-3.4055
X6.0984Y-2.2835
X6.1476Y-2.6161
X6.1693Y-2.3543
X6.2402Y-2.1102
X6.2402Y-2.2835
X6.2559Y-2.4409
X6.2923Y-2.375
X6.3307Y-2.5157
X6.4803Y-1.4921
X6.8976Y-1.0984
X6.9764Y-1.5787
X7.1575Y-2.7638
X7.2756Y-2.8346
X7.4528Y-1.5866
X7.5866Y-2.5433
X7.6083Y-2.9665
X7.748Y-2.8701
X7.8031Y-1.6614
X7.8071Y-2.9685
X7.8346Y-3.0157
X7.8622Y-2.7598
X7.8819Y-2.8858
X7.8858Y-3.1535
X7.937Y-3.1181
X8.0039Y-1.9213
X8.0217Y-2.8366
X8.1024Y-2.6732
X8.1063Y-2.9685
X8.252Y-1.8858
X8.2598Y-2.7244
X8.3189Y-3.0906
X8.3346Y-1.4803
X8.3346Y-1.8661
X8.3465Y-2.9016
X8.3465Y-2.9921
X9.0453Y-1.4783
X9.0669Y-2.9488
X9.1378Y-1.7835
X9.1654Y-3.122
X9.2913Y-2.752
X9.4094Y-1.5827
X9.5984Y-1.9213
X9.8916Y-2.447
X10.2441Y-2.1772
T3
X1.7189Y-2.3268
X1.7189Y-2.437
X1.752Y-1.3598
X1.752Y-1.5598
X1.752Y-1.6748
X1.752Y-1.8748
X1.8504Y-1.3598
X1.8504Y-1.5598
X1.8504Y-1.6748
X1.8504Y-1.8748
X1.9189Y-2.3268
X1.9189Y-2.437
X1.9488Y-1.3598
X1.9488Y-1.5598
X1.9488Y-1.6748
X1.9488Y-1.8748
X2.0472Y-1.3598
X2.0472Y-1.5598
X2.0472Y-1.6748
X2.0472Y-1.8748
X2.1457Y-1.3583
X2.1457Y-1.5583
X2.1457Y-1.6748
X2.1457Y-1.8748
X2.2441Y-1.3598
X2.2441Y-1.5598
X2.2441Y-1.6748
X2.2441Y-1.8748
X2.3425Y-1.3598
X2.3425Y-1.5598
X2.3425Y-1.6748
X2.3425Y-1.8748
X2.4409Y-1.3598
X2.4409Y-1.5598
X2.4409Y-1.6748
X2.4409Y-1.8748
X2.5394Y-1.3598
X2.5394Y-1.5598
X2.5394Y-1.6748
X2.5394Y-1.8748
X2.6378Y-1.3602
X2.6378Y-1.5602
X2.6378Y-1.6748
X2.6378Y-1.8748
X3.0748Y-1.4591
X3.0748Y-1.6591
X3.2047Y-1.4575
X3.2047Y-1.6575
X3.3945Y-2.0827
X3.3961Y-1.8819
X3.5945Y-2.0827
X3.5961Y-1.8819
X4.3031Y-1.3646
X4.3031Y-1.5646
X4.3031Y-1.6795
X4.3031Y-1.8795
X4.4016Y-1.3646
X4.4016Y-1.5646
X4.4016Y-1.6795
X4.4016Y-1.8795
X4.485Y-2.8165
X4.489Y-2.7047
X4.4906Y-2.5906
X4.5Y-1.3646
X4.5Y-1.5646
X4.5Y-1.6795
X4.5Y-1.8795
X4.5984Y-1.3646
X4.5984Y-1.5646
X4.5984Y-1.6795
X4.5984Y-1.8795
X4.685Y-2.8165
X4.689Y-2.7047
X4.6906Y-2.5906
X4.6969Y-1.363
X4.6969Y-1.563
X4.6969Y-1.6795
X4.6969Y-1.8795
X4.7953Y-1.3646
X4.7953Y-1.5646
X4.7953Y-1.6795
X4.7953Y-1.8795
X4.8937Y-1.3646
X4.8937Y-1.5646
X4.8937Y-1.6795
X4.8937Y-1.8795
X4.9921Y-1.3646
X4.9921Y-1.5646
X4.9921Y-1.6795
X4.9921Y-1.8795
X5.0906Y-1.3646
X5.0906Y-1.5646
X5.0906Y-1.6795
X5.0906Y-1.8795
X5.189Y-1.365
X5.189Y-1.565
X5.189Y-1.6795
X5.189Y-1.8795
X5.2154Y-2.0862
X5.4154Y-2.0862
X5.439Y-2.1933
X5.439Y-2.3933
X6.4114Y-1.5638
X6.4114Y-1.7638
X6.4114Y-1.8476
X6.4114Y-2.0476
X6.4114Y-2.1445
X6.4114Y-2.3445
X6.5303Y-1.3327
X6.5453Y-1.5638
X6.5453Y-1.7638
X6.5453Y-1.8476
X6.5453Y-2.0476
X6.5453Y-2.1445
X6.5453Y-2.3445
X6.6791Y-1.5638
X6.6791Y-1.7638
X6.6791Y-1.8476
X6.6791Y-2.0476
X6.6791Y-2.1445
X6.6791Y-2.3445
X6.7303Y-1.3327
X7.1425Y-1.3374
X7.3425Y-1.3374
X7.6358Y-1.8315
X7.6358Y-2.0315
X7.6358Y-2.1154
X7.6358Y-2.3154
X7.6358Y-2.4122
X7.6358Y-2.6122
X7.7697Y-1.8315
X7.7697Y-2.0315
X7.7697Y-2.1154
X7.7697Y-2.3154
X7.7697Y-2.4122
X7.7697Y-2.6122
X7.9035Y-1.8315
X7.9035Y-2.0315
X7.9035Y-2.1154
X7.9035Y-2.3154
X7.9035Y-2.4122
X7.9035Y-2.6122
X8.126Y-3.3252
X8.126Y-3.5252
X8.4469Y-1.9094
X8.4469Y-2.1094
X8.4469Y-2.2051
X8.4469Y-2.4051
X8.4469Y-2.4902
X8.4469Y-2.6902
X8.5807Y-1.9094
X8.5807Y-2.1094
X8.5807Y-2.2051
X8.5807Y-2.4051
X8.5807Y-2.4902
X8.5807Y-2.6902
X8.7146Y-1.9094
X8.7146Y-2.1094
X8.7146Y-2.2051
X8.7146Y-2.4051
X8.7146Y-2.4902
X8.7146Y-2.6902
X9.0244Y-1.3484
X9.2244Y-1.3484
X9.6417Y-1.3661
X9.6673Y-1.5638
X9.6673Y-1.7638
X9.6673Y-1.8469
X9.6673Y-2.0469
X9.6673Y-2.1437
X9.6673Y-2.3437
X9.8012Y-1.563
X9.8012Y-1.763
X9.8012Y-1.8469
X9.8012Y-2.0469
X9.8012Y-2.1437
X9.8012Y-2.3437
X9.8417Y-1.3661
X9.935Y-1.563
X9.935Y-1.763
X9.935Y-1.8469
X9.935Y-2.0469
X9.935Y-2.1437
X9.935Y-2.3437
T4
X1.7165Y-2.1654
X1.8165Y-2.1654
X1.8189Y-0.9528
X1.8189Y-1.0512
X1.9165Y-2.1654
X1.9291Y-0.8567
X1.9291Y-1.1567
X2.0291Y-0.8567
X2.0291Y-1.1567
X2.1291Y-0.8567
X2.1291Y-1.1567
X2.2291Y-0.8567
X2.2291Y-1.1567
X2.3291Y-0.8567
X2.3291Y-1.1567
X2.3827Y-2.0335
X2.3827Y-2.3335
X2.4291Y-0.8567
X2.4291Y-1.1567
X2.4827Y-2.0335
X2.4827Y-2.3335
X2.5291Y-0.8567
X2.5291Y-1.1567
X2.5827Y-2.0335
X2.5827Y-2.3335
X2.6291Y-0.8567
X2.6291Y-1.1567
X2.6827Y-2.0335
X2.6827Y-2.3335
X2.7827Y-2.0335
X2.7827Y-2.3335
X2.8268Y-1.5059
X2.8268Y-1.6476
X2.8827Y-2.0335
X2.8827Y-2.3335
X2.9134Y-1.8346
X2.9252Y-1.5059
X2.9252Y-1.6476
X2.9827Y-2.0335
X2.9827Y-2.3335
X3.0827Y-2.0335
X3.0827Y-2.3335
X3.1055Y-1.8346
X3.1929Y-2.1319
X3.1929Y-2.2303
X3.3961Y-2.3134
X3.4961Y-2.3134
X3.5961Y-2.3134
X4.4291Y-0.9882
X4.4291Y-1.0866
X4.4976Y-2.4386
X4.5354Y-0.8654
X4.5354Y-1.1654
X4.5976Y-2.4386
X4.6354Y-0.8654
X4.6354Y-1.1654
X4.6976Y-2.4386
X4.7354Y-0.8654
X4.7354Y-1.1654
X4.8354Y-0.8654
X4.8354Y-1.1654
X4.9354Y-0.8654
X4.9354Y-1.1654
X5.0354Y-0.8654
X5.0354Y-1.1654
X5.1354Y-0.8654
X5.1354Y-1.1654
X5.2354Y-0.8654
X5.2354Y-1.1654
X5.2559Y-2.1969
X5.2559Y-2.2969
X5.2559Y-2.3969
X6.4744Y-0.9161
X6.4744Y-1.0161
X6.4744Y-1.1161
X6.4744Y-1.2161
X6.5748Y-0.8071
X6.6732Y-0.8071
X6.7744Y-0.9161
X6.7744Y-1.0161
X6.7744Y-1.1161
X6.7744Y-1.2161
X6.9894Y-1.8858
X6.9894Y-1.9858
X6.9894Y-2.0858
X6.9894Y-2.1858
X6.9894Y-2.2858
X6.9894Y-2.3858
X6.9894Y-2.4858
X6.9894Y-2.5858
X7.0866Y-0.9201
X7.0866Y-1.0201
X7.0866Y-1.1201
X7.0866Y-1.2201
X7.0917Y-1.7776
X7.189Y-0.811
X7.1902Y-1.7776
X7.2874Y-0.811
X7.2894Y-1.8858
X7.2894Y-1.9858
X7.2894Y-2.0858
X7.2894Y-2.1858
X7.2894Y-2.2858
X7.2894Y-2.3858
X7.2894Y-2.4858
X7.2894Y-2.5858
X7.3866Y-0.9201
X7.3866Y-1.0201
X7.3866Y-1.1201
X7.3866Y-1.2201
X8.0039Y-3.3366
X8.0039Y-3.435
X8.9685Y-0.9193
X8.9685Y-1.0193
X8.9685Y-1.1193
X8.9685Y-1.2193
X9.0709Y-0.811
X9.1035Y-1.8858
X9.1035Y-1.9858
X9.1035Y-2.0858
X9.1035Y-2.1858
X9.1035Y-2.2858
X9.1035Y-2.3858
X9.1035Y-2.4858
X9.1035Y-2.5858
X9.1693Y-0.811
X9.2315Y-1.7776
X9.2685Y-0.9193
X9.2685Y-1.0193
X9.2685Y-1.1193
X9.2685Y-1.2193
X9.3299Y-1.7776
X9.4035Y-1.8858
X9.4035Y-1.9858
X9.4035Y-2.0858
X9.4035Y-2.1858
X9.4035Y-2.2858
X9.4035Y-2.3858
X9.4035Y-2.4858
X9.4035Y-2.5858
X9.4862Y-3.2039
X9.4862Y-3.5039
X9.5827Y-0.9193
X9.5827Y-1.0193
X9.5827Y-1.1193
X9.5827Y-1.2193
X9.6811Y-0.811
X9.7795Y-0.811
X9.7862Y-3.2039
X9.7862Y-3.5039
X9.8827Y-0.9193
X9.8827Y-1.0193
X9.8827Y-1.1193
X9.8827Y-1.2193
X9.9862Y-3.2039
X9.9862Y-3.5039
X10.1862Y-3.2039
X10.1862Y-3.5039
T5
X1.4669Y-2.3858
X1.5669Y-2.3858
X2.1575Y-2.9331
X2.2575Y-2.9331
X2.3575Y-2.9331
X2.5394Y-2.9331
X2.6394Y-2.9331
X2.7394Y-2.9331
X2.8394Y-2.9331
X2.9394Y-2.9331
X3.0394Y-2.9331
X3.1394Y-2.9331
X3.2394Y-2.9331
X3.3394Y-2.9331
X3.4394Y-2.9331
X3.5394Y-2.9331
X3.6394Y-2.9331
X3.7394Y-2.9331
X3.8094Y-1.5039
X3.9094Y-1.5039
X3.9724Y-2.9331
X4.1276Y-2.9297
X4.2276Y-2.9297
X4.3276Y-2.9297
X4.4843Y-2.9449
X4.6811Y-2.9449
X4.8677Y-2.4055
X4.9575Y-2.4055
X5.0472Y-2.4055
X5.5772Y-2.3031
X5.6772Y-2.3031
X6.1378Y-3.2992
X6.1378Y-3.4764
X6.2378Y-3.2992
X6.2378Y-3.4764
X6.3378Y-3.2992
X6.3378Y-3.4764
X6.4378Y-3.2992
X6.4378Y-3.4764
X6.5378Y-3.2992
X6.5378Y-3.4764
X6.5406Y-3.1406
X6.6378Y-3.2992
X6.6378Y-3.4764
X6.6406Y-3.1406
X6.7378Y-3.2992
X6.7378Y-3.4764
X6.7406Y-3.1406
X7.9457Y-1.2677
X8.0002Y-1.1559
X8.0547Y-1.2677
X8.1093Y-1.1559
X8.1638Y-1.2677
X8.2183Y-1.1559
X8.2728Y-1.2677
X8.2913Y-3.2858
X8.2913Y-3.3858
X8.2913Y-3.4858
X8.3274Y-1.1559
X8.3819Y-1.2677
X8.4921Y-3.2874
X8.4921Y-3.3874
X8.4921Y-3.4874
X8.689Y-3.2874
X8.689Y-3.3874
X8.689Y-3.4874
X8.9331Y-3.3425
X8.9331Y-3.4425
X9.1024Y-3.3425
X9.1024Y-3.4425
X10.3346Y-3.2992
X10.3346Y-3.3992
T6
X9.315Y-3.2039
X9.315Y-3.5039
T7
X4.2748Y-2.1772
X5.0748Y-2.1772
X6.9449Y-3.3465
X7.8307Y-3.3465
T8
X7.6717Y-1.2118
X8.6559Y-1.2118
T2
G00X6.0236Y-1.7984
M15
G01X6.0Y-1.7984
M16
G05
G00X6.0236Y-2.1386
M15
G01X6.0Y-2.1386
M16
G05
G00X6.1732Y-1.7984
M15
G01X6.1496Y-1.7984
M16
G05
G00X6.1732Y-2.1386
M15
G01X6.1496Y-2.1386
M16
G05
G00X10.1654Y-1.7984
M15
G01X10.189Y-1.7984
M16
G05
G00X10.1654Y-2.1386
M15
G01X10.189Y-2.1386
M16
G05
G00X10.315Y-1.7984
M15
G01X10.3386Y-1.7984
M16
G05
G00X10.315Y-2.1386
M15
G01X10.3386Y-2.1386
M16
G05
M30
